<svg xmlns="http://www.w3.org/2000/svg" width="128" height="128" viewBox="0 0 128 128">
  <!-- Typio keyboard icon — full color -->
  <!-- Body -->
  <rect x="8" y="32" width="112" height="64" rx="10" fill="#2e3436"/>
  <!-- Top row keys -->
  <rect x="20" y="42" width="14" height="11" rx="2" fill="#ffffff" opacity="0.92"/>
  <rect x="38" y="42" width="14" height="11" rx="2" fill="#ffffff" opacity="0.92"/>
  <rect x="56" y="42" width="14" height="11" rx="2" fill="#ffffff" opacity="0.92"/>
  <rect x="74" y="42" width="14" height="11" rx="2" fill="#ffffff" opacity="0.92"/>
  <rect x="92" y="42" width="14" height="11" rx="2" fill="#ffffff" opacity="0.92"/>
  <!-- Bottom row keys -->
  <rect x="20" y="58" width="14" height="11" rx="2" fill="#ffffff" opacity="0.92"/>
  <rect x="38" y="58" width="14" height="11" rx="2" fill="#ffffff" opacity="0.92"/>
  <rect x="56" y="58" width="14" height="11" rx="2" fill="#ffffff" opacity="0.92"/>
  <rect x="74" y="58" width="14" height="11" rx="2" fill="#ffffff" opacity="0.92"/>
  <rect x="92" y="58" width="14" height="11" rx="2" fill="#ffffff" opacity="0.92"/>
  <!-- Space bar -->
  <rect x="34" y="74" width="58" height="11" rx="2" fill="#ffffff" opacity="0.92"/>
</svg>
