<svg xmlns="http://www.w3.org/2000/svg" width="128" height="128" viewBox="0 0 128 128">
  <rect width="128" height="128" rx="28" fill="#1f2d3d"/>
  <rect x="18" y="34" width="92" height="58" rx="14" fill="#f4f6f8"/>
  <rect x="24" y="40" width="80" height="46" rx="10" fill="#2d3a4a"/>
  <g fill="#f4f6f8">
    <rect x="31" y="48" width="10" height="8" rx="2"/>
    <rect x="45" y="48" width="10" height="8" rx="2"/>
    <rect x="59" y="48" width="10" height="8" rx="2"/>
    <rect x="73" y="48" width="10" height="8" rx="2"/>
    <rect x="87" y="48" width="10" height="8" rx="2"/>
    <rect x="31" y="60" width="10" height="8" rx="2"/>
    <rect x="45" y="60" width="10" height="8" rx="2"/>
    <rect x="59" y="60" width="10" height="8" rx="2"/>
    <rect x="73" y="60" width="10" height="8" rx="2"/>
    <rect x="87" y="60" width="10" height="8" rx="2"/>
    <rect x="40" y="72" width="48" height="8" rx="2"/>
  </g>
</svg>
